<svg width="24" height="24" viewBox="0 0 24 24" fill="none" xmlns="http://www.w3.org/2000/svg">
<path fill-rule="evenodd" clip-rule="evenodd" d="M16.0003 4.49239C16.8027 4.61753 17.547 5.00017 18.1175 5.58805C19.5475 7.06147 19.53 9.40995 18.0781 10.8618L17.781 11.1589L14.344 14.5959L10.5033 18.4365C9.12548 19.8143 6.88933 19.8071 5.52044 18.4203C4.1603 17.0425 4.1718 14.8237 5.54615 13.46L11.1778 7.87188C11.7155 7.33834 12.5834 7.34001 13.1191 7.87562C13.6562 8.41273 13.6562 9.28359 13.1191 9.82071L7.21204 15.7278L8.2727 16.7884L14.1798 10.8814C15.3027 9.75845 15.3027 7.93782 14.1797 6.81493C13.0599 5.69517 11.2454 5.69168 10.1213 6.80711L4.48961 12.3952C2.52829 14.3414 2.51188 17.5077 4.45292 19.4741C6.40646 21.4531 9.59767 21.4635 11.564 19.4972L15.4047 15.6565L18.8417 12.2196L19.1387 11.9225C21.1702 9.89101 21.1948 6.60499 19.1939 4.54337C18.3411 3.66461 17.2108 3.1136 16.0003 2.97949V4.49239Z" fill="#5E5E5E"/>
</svg>
