<svg width="24" height="24" viewBox="0 0 24 24" fill="none" xmlns="http://www.w3.org/2000/svg">
<path d="M7.71094 5.66064C8.63574 5.66064 9.56055 5.66064 10.5134 5.66064C10.5134 10.1819 10.5134 14.7032 10.5134 19.3615C9.58857 19.3615 8.66377 19.3615 7.71094 19.3615C7.71094 14.8402 7.71094 10.3189 7.71094 5.66064Z" fill="#232323"/>
<path d="M19.2344 4C20.1592 4 21.084 4 22.0368 4C22.0368 8.52127 22.0368 13.0425 22.0368 17.7008C21.112 17.7008 20.1872 17.7008 19.2344 17.7008C19.2344 13.1795 19.2344 8.65828 19.2344 4Z" fill="#232323"/>
<path d="M13.5234 4.83008C14.414 4.83008 15.3045 4.83008 16.2221 4.83008C16.2221 9.35135 16.2221 13.8726 16.2221 18.5309C15.3315 18.5309 14.441 18.5309 13.5234 18.5309C13.5234 14.0096 13.5234 9.48835 13.5234 4.83008Z" fill="#232323"/>
<path d="M2 6.59473C2.89055 6.59473 3.78111 6.59473 4.69864 6.59473C4.69864 11.0817 4.69864 15.5688 4.69864 20.1917C3.80809 20.1917 2.91754 20.1917 2 20.1917C2 15.7047 2 11.2177 2 6.59473Z" fill="#232323"/>
</svg>
