<svg width="150" height="43" viewBox="0 0 150 43" fill="none" xmlns="http://www.w3.org/2000/svg">
<path fill-rule="evenodd" clip-rule="evenodd" d="M49.4572 41.6357H52.6714V42.8357H48.0857V36.4071H52.6071V37.6285H49.4572V39H52.3286V40.2H49.4572V41.6357ZM49.2857 7.5H53.5714V26.7857H49.2857V11.7857L34.2857 19.2857V26.7857H30V17.1429L49.2857 7.5ZM96.4286 6.42857L94.2857 5.35714L105 0L115.714 5.35714L113.571 6.42857L111.429 7.5L105 4.28571L98.5714 7.5L96.4286 6.42857ZM0 7.5H23.5714V26.7857H0V7.5ZM4.28571 22.5H19.2857V11.7857H4.28571V22.5ZM34.7143 36.4071H35.9786V42.8571H34.6071V38.8929L32.9143 41.4643H32.1L30.4071 38.8714V42.8571H29.0357V36.4071H30.3L32.5071 39.7714L34.7143 36.4071ZM115.714 26.7643V11.7643L107.143 16.05V33.1928L105 34.2643L102.857 33.1928V16.05L94.2857 11.7643V26.7643L92.1429 27.8357L90 26.7643V7.47855L92.1429 6.40712L105 12.8357L115.714 7.47855L117.857 6.40712L120 7.47855V26.7643L117.857 27.8357L115.714 26.7643ZM120.964 40.6714C120.964 42.3214 119.743 42.8357 118.2 42.8357H115.757V36.4071H117.15V38.5071H118.2C119.743 38.5286 120.964 39 120.964 40.6714ZM119.571 40.6714C119.571 39.9214 118.971 39.7285 118.264 39.7285H117.15V41.6143H118.264C118.971 41.6143 119.571 41.4214 119.571 40.6714ZM99.2571 36.4071H103.671V42.8357H102.3V37.6285H100.521C100.307 40.3714 100.007 42.9 98.2286 42.9C98.0143 42.9 97.7786 42.8786 97.5214 42.7928V41.5714C97.6286 41.6143 97.7786 41.6357 97.95 41.6143C99.0429 41.55 99.1071 38.6571 99.2571 36.4071ZM150 7.47855V26.7643H145.714V11.7643H130.714V26.7643H126.429V7.47855H150ZM79.2857 26.7643V17.1214L64.2857 24.6214V26.7643H60V7.47855H64.2857V20.3357L79.2857 12.8357V7.47855H83.5714V26.7643H79.2857ZM69.7928 40.8C69.7928 42.4071 68.5928 42.8357 67.3286 42.8357H64.5428V36.4071H69.2786V37.6285H65.9143V38.7857H67.3286C68.5928 38.7857 69.7928 39.2143 69.7928 40.8ZM68.4 40.8C68.4 40.1143 67.8857 40.0071 67.35 40.0071H65.9143V41.6143H67.35C67.8857 41.6143 68.4 41.4857 68.4 40.8ZM82.8643 41.6143H86.0786V42.8357H81.4929V36.4071H86.0143V37.6071H82.8643V38.9785H85.7357V40.1786H82.8643V41.6143Z" fill="#232323"/>
</svg>
