<svg width="24" height="24" viewBox="0 0 24 24" fill="none" xmlns="http://www.w3.org/2000/svg">
<path fill-rule="evenodd" clip-rule="evenodd" d="M4 6.5H20C20.2761 6.5 20.5 6.72386 20.5 7V8.64494C19.0543 9.07521 18 10.4145 18 12C18 13.5855 19.0543 14.9248 20.5 15.3551V17C20.5 17.2761 20.2761 17.5 20 17.5H4C3.72386 17.5 3.5 17.2761 3.5 17V15.3551C4.94574 14.9248 6 13.5855 6 12C6 10.4145 4.94574 9.07521 3.5 8.64494V7C3.5 6.72386 3.72386 6.5 4 6.5ZM22 9V8.75V7C22 5.89543 21.1046 5 20 5H4C2.89543 5 2 5.89543 2 7V8.75V9V9.75C2 9.88807 2.11193 10 2.25 10H2.5C3.60457 10 4.5 10.8954 4.5 12C4.5 13.1046 3.60457 14 2.5 14H2.25C2.11193 14 2 14.1119 2 14.25V15V15.25V17C2 18.1046 2.89543 19 4 19H20C21.1046 19 22 18.1046 22 17V15.25V15V14.25C22 14.1119 21.8881 14 21.75 14H21.5C20.3954 14 19.5 13.1046 19.5 12C19.5 10.8954 20.3954 10 21.5 10H21.75C21.8881 10 22 9.88807 22 9.75V9ZM15.0303 9.97668L9.97661 15.0304L8.91595 13.9697L13.9697 8.91602L15.0303 9.97668ZM9.3201 10.7522C9.71062 11.1427 10.3438 11.1427 10.7343 10.7522C11.1248 10.3617 11.1248 9.72853 10.7343 9.33801C10.3438 8.94749 9.71062 8.94749 9.3201 9.33801C8.92957 9.72853 8.92957 10.3617 9.3201 10.7522ZM13.2298 14.6619C13.6204 15.0524 14.2535 15.0524 14.644 14.6619C15.0346 14.2714 15.0346 13.6382 14.644 13.2477C14.2535 12.8572 13.6204 12.8572 13.2298 13.2477C12.8393 13.6382 12.8393 14.2714 13.2298 14.6619Z" fill="#4C4C4C"/>
</svg>
