<svg width="24" height="24" viewBox="0 0 24 24" fill="none" xmlns="http://www.w3.org/2000/svg">
<path fill-rule="evenodd" clip-rule="evenodd" d="M14.1417 8.97922L13.793 8.20427L11.999 4.21632L10.2051 8.20425L9.85646 8.97919L9.01254 9.07858L4.64637 9.59278L7.95878 12.3466L8.67903 12.9454L8.45714 13.8554L7.444 18.0104L11.2647 15.8656L11.999 15.4535L12.7332 15.8656L16.5549 18.0109L15.5425 13.8551L15.3208 12.9453L16.0409 12.3466L19.3532 9.59285L14.9856 9.07858L14.1417 8.97922ZM8.8371 7.58888L3.3139 8.23933C2.44122 8.3421 2.11588 9.43968 2.79157 10.0014L6.99984 13.5L5.71422 18.7726C5.50711 19.622 6.41289 20.3094 7.17525 19.8815L11.999 17.1736L16.8234 19.8818C17.5857 20.3097 18.4914 19.6224 18.2845 18.7731L16.9998 13.5L21.2081 10.0015C21.8838 9.43972 21.5584 8.34213 20.6857 8.23938L15.161 7.58888L12.911 2.5873C12.5572 1.80097 11.4408 1.80098 11.087 2.58731L8.8371 7.58888Z" fill="#4C4C4C"/>
</svg>
