<svg width="24" height="24" viewBox="0 0 24 24" fill="none" xmlns="http://www.w3.org/2000/svg">
<path d="M2.40002 5.22388L5.30642 10.4189V13.5877L2.40342 18.7725L2.40002 5.22388Z" fill="#5B57A2"/>
<path d="M13.5586 8.52865L16.282 6.85945L21.8556 6.85425L13.5586 11.937V8.52865Z" fill="#D90751"/>
<path d="M13.5431 5.19339L13.5585 12.0714L10.6453 10.2814V0L13.5433 5.19339H13.5431Z" fill="#FAB718"/>
<path d="M21.8555 6.85419L16.2817 6.85939L13.5431 5.19339L10.6453 0L21.8553 6.85419H21.8555Z" fill="#ED6F26"/>
<path d="M13.5585 18.8012V15.4642L10.6453 13.7083L10.6469 23.9998L13.5585 18.8012Z" fill="#63B22F"/>
<path d="M16.276 17.1473L5.30622 10.4189L2.40002 5.22388L21.8446 17.1405L16.2758 17.1473H16.276Z" fill="#1487C9"/>
<path d="M10.6476 24.0001L13.5588 18.8015L16.2754 17.1475L21.844 17.1407L10.6476 24.0001Z" fill="#017F36"/>
<path d="M2.40234 18.7724L10.6689 13.7084L7.88974 12.0032L5.30534 13.5876L2.40234 18.7724Z" fill="#984995"/>
</svg>
