<svg width="20" height="14" viewBox="0 0 20 14" fill="none" xmlns="http://www.w3.org/2000/svg">
<path d="M9.45383 2.16504C9.52383 2.16504 9.60383 2.16504 9.68383 2.16504C10.1638 2.17504 10.5638 2.20504 10.8838 2.28504C11.0038 2.31504 11.1038 2.35504 11.1838 2.40504C11.2638 2.45504 11.3238 2.52504 11.3638 2.61504C11.4038 2.70504 11.4338 2.80504 11.4538 2.89504C11.4738 2.99504 11.4838 3.12504 11.4838 3.29504C11.4838 3.46504 11.4838 3.62504 11.4738 3.78504C11.4638 3.93504 11.4638 4.14504 11.4538 4.40504C11.4438 4.66504 11.4438 4.91504 11.4438 5.13504C11.4438 5.20504 11.4438 5.32504 11.4338 5.50504C11.4238 5.68504 11.4238 5.83504 11.4338 5.93504C11.4338 6.03504 11.4438 6.15504 11.4638 6.29504C11.5138 6.68504 11.6738 6.84504 11.8638 6.84504C12.0538 6.84504 12.2738 6.70504 12.4838 6.49504C12.6038 6.36504 12.7638 6.17504 12.9438 5.90504C13.1238 5.63504 13.3238 5.31504 13.5438 4.95504C13.8938 4.34504 14.2138 3.60504 14.4938 2.88504C14.5738 2.68504 14.7638 2.52504 15.1138 2.52504H17.7538C18.1638 2.52504 18.3738 2.57504 18.4638 2.79504C18.5538 3.01504 18.2038 4.11504 17.1838 5.47504C17.0238 5.66504 16.8338 5.91504 16.5938 6.22504C16.1338 6.81504 15.8638 7.20504 15.7938 7.38504C15.5438 7.97504 16.2738 8.48504 16.6338 8.82504C16.9038 9.07504 18.1438 10.405 18.3738 10.815C18.4838 10.995 18.5438 11.255 18.4938 11.465C18.4438 11.645 18.1938 11.815 17.7538 11.815C17.5538 11.815 17.3438 11.815 17.1138 11.815C16.3638 11.815 15.5138 11.805 15.1138 11.805C14.5638 11.805 14.0738 11.305 13.7238 10.935C13.4838 10.685 13.2838 10.455 13.1138 10.245C12.9438 10.045 12.7638 9.86504 12.5738 9.73504C12.4338 9.63504 12.3138 9.59504 12.2038 9.59504C11.9838 9.59504 11.8038 9.76504 11.6638 10.025C11.6038 10.125 11.5538 10.285 11.5138 10.485C11.4738 10.685 11.4538 10.915 11.4538 11.175C11.4538 11.265 11.4438 11.345 11.4238 11.415C11.3538 11.675 11.1138 11.795 10.8538 11.815H9.73383C8.88383 11.815 8.11383 11.625 7.36383 11.195C7.03383 11.005 6.72383 10.805 6.45383 10.605C6.18383 10.405 5.97383 10.235 5.82383 10.095C5.66383 9.96504 5.51383 9.80504 5.36383 9.63504C5.26383 9.51504 5.05383 9.24504 4.73383 8.82504C4.40383 8.41504 4.09383 7.96504 3.78383 7.49504C3.48383 7.01504 3.11383 6.39504 2.70383 5.62504C2.28383 4.85504 1.90383 3.97504 1.54383 3.14504C1.40383 2.75504 1.66383 2.51504 2.06383 2.51504H4.49383C4.73383 2.51504 5.00383 2.70504 5.09383 2.95504C5.48383 3.92504 5.95383 4.95504 6.50383 5.84504C6.66383 6.10504 6.80383 6.30504 6.93383 6.45504C7.05383 6.60504 7.18383 6.71504 7.30383 6.80504C7.43383 6.89504 7.53383 6.93504 7.63383 6.93504C7.92383 6.93504 8.06383 6.57504 8.11383 6.23504C8.24383 5.42504 8.28383 4.56504 8.11383 3.76504C8.00383 3.22504 7.76383 2.94504 7.18383 2.85504C7.10383 2.84504 7.12383 2.77504 7.22383 2.64504C7.32383 2.53504 7.43383 2.44504 7.56383 2.37504C7.85383 2.23504 8.48383 2.16504 9.45383 2.16504ZM9.45383 0.665039C8.19383 0.665039 7.43383 0.775039 6.90383 1.03504C6.58383 1.19504 6.33383 1.39504 6.11383 1.64504L6.09383 1.66504L6.06383 1.69504C6.06383 1.70504 6.05383 1.70504 6.05383 1.71504C5.65383 1.28504 5.08383 1.01504 4.49383 1.01504H2.06383C1.34383 1.01504 0.713833 1.32504 0.333833 1.86504C-0.0261669 2.38504 -0.0961669 3.04504 0.143833 3.66504L0.153833 3.69504L0.163833 3.72504C0.533833 4.58504 0.933833 5.49504 1.38383 6.33504C1.82383 7.15504 2.20383 7.80504 2.53383 8.31504C2.86383 8.81504 3.19383 9.29504 3.53383 9.74504C3.98383 10.335 4.14383 10.535 4.23383 10.635C4.42383 10.855 4.62383 11.045 4.79383 11.205C4.97383 11.385 5.23383 11.605 5.58383 11.845C5.89383 12.075 6.24383 12.295 6.62383 12.515C7.58383 13.065 8.59383 13.335 9.73383 13.335H10.8438H10.9038L10.9638 13.325C11.7838 13.255 12.4438 12.805 12.7438 12.125C13.1938 12.595 13.9838 13.325 15.0938 13.325C15.2638 13.325 15.5038 13.325 15.7838 13.325C16.1838 13.325 16.6538 13.335 17.0938 13.335C17.3238 13.335 17.5538 13.335 17.7538 13.335C18.8238 13.335 19.6838 12.755 19.9238 11.865C20.0838 11.285 19.9738 10.615 19.6538 10.075C19.2238 9.32504 17.6738 7.76504 17.6538 7.75504C17.5938 7.69504 17.5238 7.63504 17.4438 7.56504C17.5238 7.45504 17.6238 7.32504 17.7538 7.15504C18.0038 6.82504 18.2038 6.57504 18.3438 6.37504C18.9538 5.56504 20.3238 3.53504 19.8238 2.25504C19.5038 1.43504 18.7938 1.02504 17.7138 1.02504H15.0738C14.1538 1.02504 13.3838 1.52504 13.0638 2.33504C13.0138 2.47504 12.9638 2.59504 12.9138 2.72504C12.9038 2.68504 12.9038 2.63504 12.8938 2.59504C12.8538 2.39504 12.7838 2.19504 12.7038 2.00504C12.5438 1.64504 12.2838 1.34504 11.9538 1.13504C11.7438 0.995039 11.4938 0.895039 11.2238 0.825039C10.7938 0.725039 10.3038 0.675039 9.70383 0.665039H9.45383Z" fill="#232323"/>
</svg>
