<svg width="24" height="24" viewBox="0 0 24 24" fill="none" xmlns="http://www.w3.org/2000/svg">
<path fill-rule="evenodd" clip-rule="evenodd" d="M18.2508 7.01222H19C20.1046 7.01222 21 7.90765 21 9.01222V11.0246V12.5246V15.5432V17.0432V18.0556C21 19.7125 19.6569 21.0556 18 21.0556H6C4.34315 21.0556 3 19.7125 3 18.0556V9.01222C3 7.90765 3.89543 7.01222 5 7.01222H7.8743L14.3586 3.25688C15.0755 2.8417 15.9917 3.08719 16.4049 3.80518L18.2508 7.01222ZM16.5201 7.01222L15.1069 4.55692L10.8673 7.01222H16.5201ZM19 8.51222H5C4.72386 8.51222 4.5 8.73608 4.5 9.01222V18.0556C4.5 18.884 5.17157 19.5556 6 19.5556H18C18.8284 19.5556 19.5 18.884 19.5 18.0556V17.0432H14C12.8954 17.0432 12 16.1478 12 15.0432V13.0246C12 11.92 12.8954 11.0246 14 11.0246H19.5V9.01222C19.5 8.73608 19.2761 8.51222 19 8.51222ZM19.5 12.5246V15.5432H14C13.7239 15.5432 13.5 15.3194 13.5 15.0432V13.0246C13.5 12.7485 13.7239 12.5246 14 12.5246H19.5Z" fill="#232323"/>
</svg>
