<svg width="18" height="19" viewBox="0 0 18 19" fill="none" xmlns="http://www.w3.org/2000/svg">
<path fill-rule="evenodd" clip-rule="evenodd" d="M2.74056 14.0318L2.90722 13.4142L2.57688 12.8664C1.8967 11.7385 1.50503 10.4173 1.50503 9C1.50503 4.85786 4.86289 1.5 9.00503 1.5C13.1472 1.5 16.505 4.85786 16.505 9C16.505 13.1421 13.1472 16.5 9.00503 16.5C7.98726 16.5 7.02042 16.2981 6.13955 15.9336L5.62058 15.7188L5.08819 15.8977L1.95274 16.9513L2.74056 14.0318ZM1.48093 18.6922L1.48314 18.6915L5.56598 17.3196C6.62552 17.758 7.78702 18 9.00503 18C13.9756 18 18.005 13.9706 18.005 9C18.005 4.02944 13.9756 0 9.00503 0C4.03447 0 0.00502908 4.02944 0.00502908 9C0.00502908 10.6978 0.475165 12.2859 1.29236 13.641L0.244155 17.5254L0.243548 17.5277L0.213394 17.6394L0.0178856 18.3639C-0.0861408 18.7494 0.281387 19.0953 0.659879 18.9681L1.37122 18.7291L1.48093 18.6922ZM7.55887 6.71599C7.40767 5.82055 6.77262 4.53237 6.6063 4.50095C5.19518 4.23439 4.20282 5.66995 4.5046 7.05848C4.82212 8.51946 5.56376 9.91761 7.00017 11.2843C8.43659 12.6511 10.0256 13.4688 11.2352 13.4688C12.4448 13.4688 13.7325 12.6897 13.396 11.1974C13.1692 11.0088 12.0049 10.2318 11.5665 10.1532C11.1842 10.0848 10.9398 10.4223 10.7331 10.7077C10.7027 10.7497 10.6732 10.7905 10.6441 10.8288C10.4173 11.1272 10.2359 11.2843 10.0393 11.2843C9.84276 11.2843 9.05651 10.9701 8.13418 10.059C7.21185 9.14784 6.71527 8.45959 6.89433 8.11102C6.93196 8.03777 7.00381 7.94551 7.08706 7.83861C7.31577 7.54494 7.63059 7.1407 7.55887 6.71599Z" fill="#232323"/>
</svg>
